/* XPM */
static char * info_xpm[] = {
"16 16 188 2",
"  	c #FFFFFF",
". 	c #FEFEFE",
"+ 	c #E3E2E2",
"@ 	c #ACACAC",
"# 	c #B6B5B4",
"$ 	c #BAB9B7",
"% 	c #BBBAB8",
"& 	c #B7B7B6",
"* 	c #FCFCFC",
"= 	c #AFAFAF",
"- 	c #C1C0BE",
"; 	c #D2D8E7",
"> 	c #92A3CF",
", 	c #788FCB",
"' 	c #6E86C1",
") 	c #7A8BB7",
"! 	c #B2B8CA",
"~ 	c #C3C2C0",
"{ 	c #A9A9A9",
"] 	c #D5D7D9",
"^ 	c #8AA2E1",
"/ 	c #6389E8",
"( 	c #5F87E9",
"_ 	c #5C85E8",
": 	c #6389E6",
"< 	c #4F78DA",
"[ 	c #5076D1",
"} 	c #5670AE",
"| 	c #C1C3C9",
"1 	c #AAA9A9",
"2 	c #D1D3D6",
"3 	c #7191E0",
"4 	c #5B83E5",
"5 	c #5881E5",
"6 	c #4D78E1",
"7 	c #FCFEFF",
"8 	c #5C80DA",
"9 	c #4670D2",
"0 	c #426ACB",
"a 	c #4665B0",
"b 	c #BFC1C7",
"c 	c #C2C1BF",
"d 	c #738CCB",
"e 	c #537BDD",
"f 	c #517ADE",
"g 	c #4772DA",
"h 	c #CCD6F1",
"i 	c #ECEDF1",
"j 	c #4468C9",
"k 	c #4168CD",
"l 	c #3B63C8",
"m 	c #3A60C3",
"n 	c #445D9D",
"o 	c #B9BFCD",
"p 	c #5077D6",
"q 	c #4B73D8",
"r 	c #4B73D7",
"s 	c #4972D7",
"t 	c #4970D6",
"u 	c #355ECF",
"v 	c #2F58C8",
"w 	c #4067CF",
"x 	c #365CC4",
"y 	c #3156BE",
"z 	c #2E55BB",
"A 	c #3357B5",
"B 	c #A1A8BB",
"C 	c #ADACAC",
"D 	c #B8B7B6",
"E 	c #7284AE",
"F 	c #456DCF",
"G 	c #436DD1",
"H 	c #436BD1",
"I 	c #446CD1",
"J 	c #345ECB",
"K 	c #DFDEDC",
"L 	c #E7E6E3",
"M 	c #0F2E88",
"N 	c #1A41A9",
"O 	c #1A40A9",
"P 	c #1A3FA8",
"Q 	c #1C41A8",
"R 	c #516290",
"S 	c #B9B8B8",
"T 	c #BDBCBA",
"U 	c #536AA5",
"V 	c #3D66CA",
"W 	c #3D64CB",
"X 	c #3E65CC",
"Y 	c #2A50B9",
"Z 	c #1139AA",
"` 	c #D0CDC5",
" .	c #D5D3CF",
"..	c #12308D",
"+.	c #1C41AD",
"@.	c #1A3FAC",
"#.	c #1A3FAB",
"$.	c #1B3FAB",
"%.	c #2B4284",
"&.	c #BFBEBB",
"*.	c #4C64A0",
"=.	c #375FC5",
"-.	c #375EC5",
";.	c #1F46AF",
">.	c #1D42AD",
",.	c #153CAF",
"'.	c #C6C3BB",
").	c #D0CECA",
"!.	c #12318E",
"~.	c #1C40B0",
"{.	c #1B3FAE",
"].	c #1B3FAD",
"^.	c #2A4184",
"/.	c #BFBEBC",
"(.	c #B8B7B7",
"_.	c #61739F",
":.	c #345ABE",
"<.	c #2047AF",
"[.	c #1E43AF",
"}.	c #1D42AF",
"|.	c #143CB0",
"1.	c #C5C3BA",
"2.	c #D4D3CE",
"3.	c #133091",
"4.	c #1D40B6",
"5.	c #1D3FB5",
"6.	c #1C3EB5",
"7.	c #1E40B0",
"8.	c #4D5D8F",
"9.	c #B9B9B8",
"0.	c #A7ACBD",
"a.	c #284DAF",
"b.	c #1F45AF",
"c.	c #1D43B0",
"d.	c #1D42B0",
"e.	c #143AB3",
"f.	c #D1CEC4",
"g.	c #E2E0DC",
"h.	c #143094",
"i.	c #1F41BD",
"j.	c #1E3FBB",
"k.	c #1E3FBA",
"l.	c #2543B3",
"m.	c #9AA0B5",
"n.	c #ADADAD",
"o.	c #C4C3C0",
"p.	c #334B8E",
"q.	c #2146AF",
"r.	c #1D42B1",
"s.	c #1D41B3",
"t.	c #1339B4",
"u.	c #E7E5DD",
"v.	c #FAF8F5",
"w.	c #143096",
"x.	c #2242C3",
"y.	c #2041C1",
"z.	c #2241BE",
"A.	c #314696",
"B.	c #C5C4C1",
"C.	c #E2E2E2",
"D.	c #BBBDC2",
"E.	c #27459A",
"F.	c #1F43B2",
"G.	c #1E41B6",
"H.	c #1236B6",
"I.	c #FBFBF5",
"J.	c #FFFFFD",
"K.	c #153096",
"L.	c #2443C7",
"M.	c #2542C4",
"N.	c #2B43A8",
"O.	c #BCBEC5",
"P.	c #30478F",
"Q.	c #2444B3",
"R.	c #2243BF",
"S.	c #203797",
"T.	c #223894",
"U.	c #2643C5",
"V.	c #2A46C2",
"W.	c #34479C",
"X.	c #BDBEC6",
"Y.	c #9CA2B7",
"Z.	c #4E5D96",
"`.	c #2F4394",
" +	c #304396",
".+	c #515F9B",
"++	c #9CA2B9",
"@+	c #B9B8B7",
"    .   + @ # $ % & @ +   .     ",
"  . * = - ; > , ' ) ! ~ = * .   ",
". * { ] ^ / ( _ : < [ } | 1 * . ",
"  = 2 3 4 5 6 7   8 9 0 a b =   ",
"+ c d e f f g h i j k l m n ~ + ",
"@ o p q r s t u v w x y z A B C ",
"D E F G H I J K L M N O P Q R S ",
"T U V W X Y Z `  ...+.@.#.$.%.&.",
"T *.=.-.;.>.,.'.).!.~.{.{.].^./.",
"(._.:.<.[.}.|.1.2.3.4.5.6.7.8.9.",
"@ 0.a.b.c.d.e.f.g.h.i.j.k.l.m.n.",
"+ o.p.q.r.s.t.u.v.w.x.y.z.A.B.C.",
"  = D.E.F.G.H.I.J.K.L.M.N.O.=   ",
". * 1 D.P.Q.R.S.T.U.V.W.X.{ * . ",
"  . * = ~ Y.Z.`. +.+++B.= * .   ",
"    .   + @ S &.&.@+@ +   .     "};
